# xmcd CD database file
# Copyright (C) 1997 Ti Kan
# 
# Track frame offsets:
#     150
#     13397
#     34105
#     51709
#     67035
#     77830
#     108026
#     124301
#     134210
#     147195
#     169597
#     184635
#     198720
#     217035
#     233141
# 
# Disc length: 3119 seconds
# 
# Revision: 1
# Processed by: cddbd v1.4b41PL1 Copyright (c) Steve Scherf et al.
# Submitted via: DiscPlay 4.0.4
# 
DISCID=eb0c2d0f
DTITLE=Big Nick and The Gila Monsters - Out From Under The Rock
DYEAR=1900
DGENRE=
TTITLE0=V-8 Ford
TTITLE1=My Babe
TTITLE2=In The Dark
TTITLE3=Don't Go No Further
TTITLE4=Sugar Sweet
TTITLE5=Juicehead Blues
TTITLE6=Big Rear Window
TTITLE7=I Wants To Be Loved
TTITLE8=All Right OK You Win
TTITLE9=Crosseyed Cat
TTITLE10=Dead Presidents
TTITLE11=Call My Job
TTITLE12=Life Of The Party
TTITLE13=Movin' Up In Class
TTITLE14=End noise (Studio Error?)
EXTD=
EXTT0=
EXTT1=
EXTT2=
EXTT3=
EXTT4=
EXTT5=
EXTT6=
EXTT7=
EXTT8=
EXTT9=
EXTT10=
EXTT11=
EXTT12=
EXTT13=
EXTT14=
PLAYORDER=
